<svg version="1.1" xmlns="http://www.w3.org/2000/svg" xmlns:xlink="http://www.w3.org/1999/xlink" width="318.1826" height="307.11505" viewBox="0,0,318.1826,307.11505"><g transform="translate(-103.81771,-46.88495)"><g data-paper-data="{&quot;isPaintingLayer&quot;:true}" fill-rule="nonzero" stroke-dasharray="" stroke-dashoffset="0" style="mix-blend-mode: normal"><path d="M361.01938,224.99782c-15.73789,100.04608 -95.77908,87.10383 -173.18472,78.15195c-77.40564,-8.95188 -91.91001,-33.89712 -76.2763,-104.41101c15.63371,-70.51389 65.74079,-121.16566 146.30045,-119.41618c80.55966,1.74948 118.89846,45.62915 103.16057,145.67524z" fill="#f7aa32" stroke="none" stroke-width="1.99937" stroke-linecap="round" stroke-linejoin="round" stroke-miterlimit="10"/><path d="M327.88295,282.51765c17.54972,16.75014 -61.87992,40.76271 -145.67523,23.75819c-83.79532,-17.00452 -80.65613,-55.15445 -76.90152,-74.40067c3.75461,-19.24621 66.90421,-38.92141 120.66662,-23.75818c53.76241,15.16322 71.31853,51.38417 101.91014,74.40066z" fill="#fbede4" stroke="none" stroke-width="1.99937" stroke-linecap="round" stroke-linejoin="round" stroke-miterlimit="10"/><path d="M180.90696,157.70409c-1.32503,10.96977 -8.79067,19.60689 -18.4478,19.14199c-9.65714,-0.46489 -19.44445,-10.169 -16.52378,-20.82552c3.24185,-11.82837 12.89536,-17.98116 18.4478,-19.142c13.81887,-2.88907 18.00089,8.59658 16.52378,20.82552z" fill="#2c2c2b" stroke="none" stroke-width="1.99937" stroke-linecap="round" stroke-linejoin="round" stroke-miterlimit="10"/><path d="M210.93883,205.07735c-1.61359,10.93105 -8.30337,18.04482 -19.35288,18.04482c-11.04951,0 -19.75219,-8.96033 -20.0069,-20.0069c-0.23856,-10.34645 9.52704,-18.29795 20.57654,-18.29795c11.0495,0 20.05615,11.63675 18.78323,20.26003z" fill="#2c2c2b" stroke="none" stroke-width="1.99937" stroke-linecap="round" stroke-linejoin="round" stroke-miterlimit="10"/><path d="M220.97109,233.75084c-16.09035,1.68057 -35.12547,8.85018 -31.886,-18.13125c-6.96228,22.834 -18.19542,16.99019 -28.1347,14.37996" fill="none" stroke="#2c2c2b" stroke-width="18" stroke-linecap="round" stroke-linejoin="round" stroke-miterlimit="4"/><path d="M255.70847,165.1751c-1.32503,10.96977 -8.79067,19.60689 -18.4478,19.14199c-9.65714,-0.46489 -19.44445,-10.169 -16.52378,-20.82552c3.24185,-11.82837 12.89536,-17.98116 18.4478,-19.142c13.81887,-2.88907 18.00089,8.59658 16.52378,20.82552z" fill="#2c2c2b" stroke="none" stroke-width="1.99937" stroke-linecap="round" stroke-linejoin="round" stroke-miterlimit="10"/><path d="M243.53819,80.46208l-78.48684,29.62748c2.54077,-19.92491 14.76491,-57.01732 34.82529,-62.37365c20.06037,-5.35633 34.2858,16.30616 43.66155,32.74616z" fill="#f7aa32" stroke="none" stroke-width="18" stroke-linecap="round" stroke-linejoin="round" stroke-miterlimit="4"/><path d="M304.87229,87.21923c14.49127,-8.36227 33.01206,-25.50965 49.89892,-11.95495c16.88687,13.5547 9.56185,45.55928 4.67802,68.61101z" fill="#f7aa32" stroke="none" stroke-width="18" stroke-linecap="round" stroke-linejoin="round" stroke-miterlimit="4"/><g stroke="none" stroke-width="1" stroke-linecap="butt" stroke-linejoin="miter" stroke-miterlimit="10"><path d="M396.4703,340.26592c-2.88345,0 -5.59251,-1.12086 -7.62801,-3.15636l-52.56295,-52.55859l4.60985,-2.07299c1.94831,-0.87628 3.68736,-2.07387 5.16919,-3.55919c1.49055,-1.49055 2.6877,-3.22916 3.56093,-5.17093l2.07299,-4.60942l52.56295,52.55859c2.03637,2.03681 3.1581,4.74718 3.1581,7.63237c0,2.88257 -1.12129,5.5912 -3.1581,7.62801l-0.17613,0.17177c-2.03332,2.02286 -4.73454,3.13674 -7.60883,3.13674z" fill="#eb7830"/><path d="M333.72243,284.0239c-4.65388,0 -9.03006,-1.8136 -12.32331,-5.10641c-5.28298,-5.28298 -7.17941,-21.79456 -7.74964,-28.64874l-0.34136,-4.10675l4.10632,0.34179c6.85287,0.57067 23.36184,2.46754 28.64831,7.75357c3.75973,3.75929 5.58161,8.95115 4.99829,14.24415c-0.43465,3.97248 -2.16237,7.57395 -4.99568,10.41337c-2.83331,2.83331 -6.43391,4.5632 -10.41554,5.0044c-0.68228,0.07063 -1.3214,0.10463 -1.92738,0.10463z" fill="#f5c525"/><path d="M333.50009,350.51231c-46.87584,0 -85.0124,-38.13613 -85.0124,-85.0124c0,-46.8536 38.13569,-84.98973 85.01066,-85.0124c46.78647,0 84.92303,38.06332 85.01414,84.84892c0.00916,4.76287 -0.38103,9.55016 -1.15922,14.2289c-0.53362,3.18688 -3.25445,5.49616 -6.4701,5.49616c-0.89241,0 -1.76826,-0.1831 -2.60225,-0.54452c-6.27217,-2.72301 -12.95371,-4.10283 -19.86326,-4.10283h-0.31825c-6.33931,0.03575 -12.54827,1.2717 -18.43592,3.67428l-2.14536,0.87541l-16.40739,-16.40783l0.04229,-1.50145c0.13602,-4.83437 -1.67278,-9.38014 -5.09202,-12.79894c-5.37976,-5.37976 -23.72849,-7.59575 -32.67877,-8.01558c0.58942,12.46674 3.34774,28.00832 8.01732,32.67528c3.29151,3.29543 7.66681,5.10903 12.32244,5.10903c0.13733,0 0.2716,-0.00741 0.40893,-0.01351l1.53938,-0.07193l14.37625,14.38192l-1.79093,2.4161c-6.40209,8.63552 -9.79648,18.85749 -9.8161,29.56252c-0.00436,4.10501 0.48653,8.1843 1.45873,12.1232c0.48653,1.95572 0.04839,3.99733 -1.20325,5.59469c-1.23682,1.58428 -3.10012,2.49588 -5.10772,2.49588h-0.08719zM312.90965,310.83157c-2.58133,0 -5.10816,1.04631 -6.93309,2.87168c-1.82929,1.82275 -2.87603,4.35002 -2.87603,6.93745c0,2.58394 1.04849,5.11382 2.87603,6.94224c1.82406,1.81752 4.35263,2.86252 6.93309,2.86252c2.58045,0 5.10859,-1.04587 6.93527,-2.8695c1.8258,-1.8258 2.87386,-4.35438 2.87386,-6.93527c0,-2.58481 -1.04674,-5.11077 -2.87168,-6.92916c-1.83191,-1.83191 -4.35917,-2.87996 -6.93745,-2.87996zM278.85237,277.55467c-1.25252,0 -2.48236,0.23847 -3.65466,0.70844c-5.01355,2.01806 -7.45842,7.74485 -5.44603,12.76363c1.50407,3.73401 5.08025,6.1501 9.10941,6.1501c1.25906,0 2.48629,-0.2376 3.64812,-0.70582c2.43353,-0.97873 4.33912,-2.84421 5.3693,-5.25551c1.02712,-2.40476 1.05503,-5.07066 0.07891,-7.50725c-1.50101,-3.73706 -5.07502,-6.15359 -9.10505,-6.15359zM391.28672,244.49531c-2.57784,0 -5.10728,1.04892 -6.93963,2.87821c-1.82362,1.82014 -2.8695,4.34653 -2.8695,6.93091c0,2.59004 1.045,5.11731 2.86732,6.93309c1.82929,1.82929 4.35787,2.87603 6.94181,2.87603c2.58438,0 5.11077,-1.04543 6.93091,-2.8695c1.8306,-1.82711 2.87821,-4.35481 2.87821,-6.93963c0,-2.58133 -1.04805,-5.11034 -2.87603,-6.93745c-1.82973,-1.82319 -4.3583,-2.87168 -6.93309,-2.87168zM271.67602,235.64748c-1.09252,2.32367 -1.23333,4.93944 -0.39542,7.366c0.85318,2.47844 2.61751,4.47296 4.97039,5.61867c1.35322,0.66092 2.79843,0.99486 4.29727,0.99486c3.78414,0 7.16502,-2.11267 8.82342,-5.51316c2.3677,-4.86358 0.33961,-10.74731 -4.52135,-13.11371c-1.35061,-0.65787 -2.79495,-0.99094 -4.29334,-0.99094c-3.78632,0 -7.16589,2.11092 -8.82124,5.5088zM364.02608,205.42448c-3.44671,0 -6.57734,1.75082 -8.37481,4.68222c-2.82198,4.60942 -1.36674,10.66317 3.24529,13.49343c1.53981,0.94298 3.30807,1.4426 5.11208,1.4426c3.44366,0 6.57473,-1.75256 8.37481,-4.68789c1.36587,-2.23386 1.78308,-4.8675 1.17274,-7.41177c-0.60991,-2.54601 -2.1785,-4.70358 -4.41716,-6.07599c-1.54069,-0.94298 -3.30938,-1.4426 -5.11295,-1.4426zM316.85946,199.23383c-0.94037,0 -1.87768,0.13602 -2.78666,0.40326c-2.50983,0.74244 -4.58326,2.41871 -5.83272,4.71884c-1.25164,2.30057 -1.5324,4.95208 -0.79127,7.46888c1.22113,4.1364 5.0881,7.02726 9.40194,7.02726c0.93993,0 1.87768,-0.13602 2.78623,-0.40326c2.50983,-0.74157 4.58239,-2.41784 5.83272,-4.71884c1.25339,-2.30449 1.53502,-4.9547 0.79258,-7.46409c-1.22549,-4.13989 -5.09202,-7.03205 -9.40281,-7.03205z" fill="#f0da77"/><path d="M312.90965,330.44546c-2.58133,0 -5.10903,-1.04282 -6.9344,-2.86121c-1.82886,-1.82886 -2.87473,-4.3583 -2.87473,-6.94399c0,-2.58351 1.04587,-5.11164 2.86993,-6.93483c1.82624,-1.82624 4.35569,-2.87429 6.93919,-2.87429c2.58045,0 5.10946,1.04892 6.93919,2.87865c1.82406,1.82406 2.86993,4.35002 2.86993,6.93047c0,2.58307 -1.04587,5.11034 -2.86993,6.9344c-1.83322,1.82624 -4.36048,2.8708 -6.93919,2.8708z" fill="#6c3ec7"/><path d="M278.86109,297.17684c-4.0322,0 -7.60752,-2.4161 -9.10897,-6.15533c-0.97568,-2.42569 -0.94516,-5.09202 0.08632,-7.50551c1.03061,-2.41217 2.93576,-4.27765 5.3645,-5.25289c1.15922,-0.46909 2.38994,-0.70887 3.64943,-0.70887c4.0309,0 7.6049,2.41871 9.10548,6.16144c0.97481,2.43005 0.9456,5.09508 -0.08196,7.50202c-1.0293,2.41086 -2.93576,4.27721 -5.36886,5.25464c-1.16576,0.46735 -2.39212,0.70451 -3.64594,0.70451z" fill="#3e81c8"/><path d="M280.54826,249.62657c-1.50232,0 -2.9484,-0.33525 -4.29814,-0.99617c-2.35027,-1.14135 -4.11983,-3.13761 -4.97257,-5.61561c-0.84489,-2.46056 -0.691,-5.09595 0.42986,-7.4327l0.07019,-0.15738l0.04403,-0.08545c1.68761,-3.28802 5.03491,-5.33093 8.73579,-5.33093c1.50276,0 2.94928,0.33569 4.29901,0.99704c2.34503,1.14178 4.11198,3.13805 4.96603,5.61692c0.85361,2.47713 0.69231,5.13693 -0.4534,7.49025c-1.65665,3.40093 -5.03622,5.51404 -8.8208,5.51404z" fill="#3ec775"/><path d="M316.85074,218.85208c-4.31776,0 -8.18386,-2.89217 -9.4015,-7.03336c-0.74288,-2.51114 -0.46343,-5.16352 0.78822,-7.46365c1.25339,-2.30405 3.32813,-3.97989 5.84275,-4.71841c0.90113,-0.26637 1.83845,-0.40283 2.77925,-0.40283c4.31078,0 8.17601,2.89042 9.39976,7.02856c0.74419,2.51593 0.46473,5.16832 -0.78647,7.46845c-1.24903,2.29577 -3.32072,3.96986 -5.83403,4.71579c-0.90985,0.26942 -1.84717,0.40544 -2.78797,0.40544z" fill="#ebc92f"/><path d="M364.00864,225.04273c-1.79703,0 -3.56267,-0.49743 -5.10641,-1.43824c-4.61944,-2.83811 -6.07119,-8.89055 -3.24704,-13.49823c1.79398,-2.93097 4.92374,-4.68179 8.37089,-4.68179c1.80052,0 3.56965,0.49961 5.11557,1.44477c2.23779,1.37066 3.80507,3.52736 4.41454,6.07512c0.60904,2.55037 0.19313,5.18183 -1.17186,7.41047c-1.80662,2.93794 -4.93639,4.68789 -8.37568,4.68789z" fill="#eb7830"/><path d="M391.28672,264.11355c-2.59004,0 -5.12123,-1.04936 -6.94355,-2.87909c-1.81752,-1.81098 -2.86557,-4.34043 -2.86557,-6.93004c0,-2.58786 1.04805,-5.11557 2.87516,-6.93527c1.8245,-1.82493 4.35351,-2.87386 6.93396,-2.87386c2.58045,0 5.10816,1.04761 6.93483,2.87429c1.82668,1.8258 2.87429,4.35351 2.87429,6.93483c0,2.58307 -1.04761,5.11251 -2.87429,6.93919c-1.82406,1.82406 -4.35176,2.86993 -6.93483,2.86993z" fill="#eb2f2f"/><g fill="#231f20"><path d="M326.20646,320.64026c0,3.50077 -1.42123,6.92742 -3.89749,9.40368c-2.47626,2.4719 -5.90291,3.88877 -9.39932,3.88877c-3.50077,0 -6.92306,-1.41687 -9.39932,-3.88441c-2.48062,-2.48062 -3.89749,-5.90727 -3.89749,-9.40804c0,-3.50513 1.41687,-6.93178 3.89749,-9.40368c2.4719,-2.4719 5.89855,-3.89313 9.39932,-3.89313c3.49641,0 6.92306,1.42123 9.39932,3.89749c2.47626,2.46754 3.89749,5.89419 3.89749,9.39932zM319.23108,320.64026c0,-1.66537 -0.67574,-3.29151 -1.84847,-4.46424c-1.18145,-1.18145 -2.81195,-1.85719 -4.47296,-1.85719c-1.66537,0 -3.29587,0.67574 -4.47296,1.85283c-1.17709,1.17709 -1.84847,2.80323 -1.84847,4.4686c0,1.66537 0.67138,3.29587 1.84847,4.47296c1.17709,1.17274 2.80759,1.84412 4.47296,1.84412c1.66101,0 3.29151,-0.67138 4.47296,-1.84847c1.17274,-1.17274 1.84847,-2.80323 1.84847,-4.4686z"/><path d="M291.08544,292.58617c-1.39508,3.26535 -3.97596,5.79392 -7.27183,7.11924c-1.57818,0.6365 -3.24791,0.95911 -4.95252,0.95911c-5.46259,0 -10.30612,-3.27407 -12.34642,-8.33993c-2.72912,-6.80535 0.58419,-14.5611 7.38518,-17.29893c1.5869,-0.6365 3.25227,-0.95911 4.95252,-0.95911c5.46259,0 10.30612,3.27407 12.34206,8.34429c1.32096,3.29587 1.28609,6.90998 -0.10899,10.17533zM284.72041,285.01353c-0.96783,-2.41522 -3.26971,-3.9716 -5.86804,-3.9716c-0.80653,0 -1.59562,0.15259 -2.34983,0.45776c-3.23483,1.29916 -4.81301,4.99175 -3.51385,8.22223c0.96783,2.41086 3.27407,3.96725 5.8724,3.96725c0.80653,0 1.59562,-0.15259 2.34547,-0.4534c1.57382,-0.63214 2.79887,-1.8354 3.46153,-3.38742c0.66266,-1.55202 0.6801,-3.26971 0.05232,-4.83481z"/><path d="M292.50667,245.64189c-2.24956,4.61247 -6.83151,7.47237 -11.95841,7.47237c-2.03594,0 -3.9934,-0.4534 -5.82444,-1.34712c-3.18688,-1.55202 -5.58466,-4.25934 -6.73996,-7.61624c-1.13786,-3.29587 -0.94604,-6.83587 0.53623,-9.98787c0.0218,-0.05667 0.04796,-0.11335 0.07847,-0.17002c2.2452,-4.61247 6.83151,-7.47237 11.95841,-7.47237c2.02722,0 3.98468,0.44904 5.82008,1.34276c6.59173,3.20867 9.33829,11.18676 6.12961,17.77849zM283.32097,234.13687c-0.87192,-0.42724 -1.80052,-0.64086 -2.76399,-0.64086c-2.39343,0 -4.54271,1.31224 -5.63262,3.43537c-0.01744,0.03924 -0.03488,0.07847 -0.05232,0.11771c-0.74113,1.51714 -0.84576,3.23047 -0.29645,4.83045c0.54931,1.59562 1.69153,2.8817 3.20867,3.61848c0.87192,0.42724 1.80052,0.64086 2.76399,0.64086c2.43702,0 4.61683,-1.3602 5.68493,-3.55308c1.52586,-3.13456 0.22234,-6.92306 -2.91222,-8.44892z"/><path d="M375.35671,222.17846c-2.44138,3.98032 -6.68328,6.35195 -11.34807,6.35195c-2.44574,0 -4.84353,-0.67574 -6.93614,-1.95747c-6.25168,-3.83646 -8.22223,-12.03688 -4.39449,-18.28857c2.43702,-3.97596 6.67892,-6.34759 11.34807,-6.34759c2.44574,0 4.84353,0.67574 6.93614,1.95747c3.02993,1.85719 5.15742,4.77813 5.98574,8.2353c0.82833,3.45281 0.26158,7.01897 -1.59126,10.0489zM370.16441,213.7557c-0.39236,-1.63921 -1.40379,-3.02993 -2.84247,-3.91057c-0.99835,-0.61035 -2.13621,-0.93296 -3.29587,-0.93296c-2.2234,0 -4.2419,1.12914 -5.3972,3.01685c-1.82232,2.97325 -0.885,6.87075 2.08825,8.69742c0.99399,0.60599 2.13185,0.9286 3.29151,0.9286c2.21904,0 4.23754,-1.12914 5.40156,-3.02121c0.88064,-1.43867 1.14658,-3.13456 0.75421,-4.77813z"/><path d="M328.53449,215.39491c-1.69589,3.12148 -4.50348,5.39284 -7.91269,6.39991c-1.22941,0.36185 -2.49806,0.54495 -3.77106,0.54495c-5.8506,0 -11.09085,-3.91929 -12.7475,-9.53011c-1.00271,-3.40486 -0.62342,-7.00153 1.07246,-10.11866c1.69589,-3.12148 4.50784,-5.39284 7.91269,-6.39991c1.22941,-0.36185 2.49806,-0.54495 3.77106,-0.54495c5.84624,0 11.08649,3.91929 12.7475,9.53011c1.00707,3.40486 0.62342,7.00153 -1.07246,10.11866zM322.91496,207.25116c-0.78909,-2.66808 -3.27843,-4.52964 -6.0555,-4.52964c-0.60599,0 -1.20761,0.08719 -1.79616,0.26158c-1.61742,0.4752 -2.95582,1.55638 -3.76234,3.03865c-0.80653,1.48227 -0.98527,3.19123 -0.50571,4.81301c0.78473,2.66808 3.27843,4.52964 6.0555,4.52964c0.60163,0 1.20761,-0.08719 1.79616,-0.26158c1.61742,-0.47956 2.95582,-1.55638 3.76234,-3.03865c0.80653,-1.48227 0.98527,-3.19123 0.50571,-4.81301z"/><path d="M404.58353,254.30443c0,3.50077 -1.42123,6.93178 -3.89749,9.40368c-2.4719,2.47626 -5.90291,3.89313 -9.39932,3.89313c-3.50077,0 -6.92742,-1.41687 -9.40368,-3.89313c-2.47626,-2.46754 -3.89313,-5.89419 -3.89313,-9.40368c0,-3.49641 1.41687,-6.92742 3.89313,-9.39932c2.48062,-2.47626 5.90727,-3.89749 9.40368,-3.89749c3.49205,0 6.9187,1.42123 9.39932,3.89313c2.47626,2.47626 3.89749,5.90727 3.89749,9.40368zM397.60816,254.30443c0,-1.66101 -0.67574,-3.29151 -1.85283,-4.4686c-1.17709,-1.17709 -2.80759,-1.85283 -4.4686,-1.85283c-1.66101,0 -3.29151,0.67574 -4.47296,1.85719c-1.17709,1.17274 -1.84847,2.80323 -1.84847,4.46424c0,1.66973 0.67138,3.29587 1.84847,4.4686c1.17709,1.18145 2.80759,1.85283 4.47296,1.85283c1.66101,0 3.29151,-0.67138 4.4686,-1.84847c1.17709,-1.17709 1.85283,-2.80759 1.85283,-4.47296z"/><path d="M422.00018,265.32989c0.00872,4.96124 -0.39672,9.94427 -1.20761,14.8096c-0.81525,4.87404 -4.98303,8.40969 -9.90939,8.40969c-1.37328,0 -2.71604,-0.28337 -3.9934,-0.83269c-5.83752,-2.53293 -12.05432,-3.81466 -18.47167,-3.81466h-0.27902c-5.01355,0.03052 -9.844,0.8632 -14.36928,2.37599l32.94993,32.95429c2.6986,2.69424 4.18087,6.2822 4.18087,10.09686c0,3.8103 -1.48227,7.39826 -4.18087,10.0925l-0.15259,0.15695c-2.78579,2.78143 -6.43914,4.17215 -10.09686,4.17215c-3.65771,0 -7.31107,-1.39072 -10.09686,-4.17215l-35.92755,-35.92755c-5.34052,7.5552 -8.50124,16.75398 -8.51868,26.65466c-0.00436,3.81466 0.4534,7.60752 1.3602,11.27831c0.74113,3.00377 0.06975,6.12961 -1.83976,8.57535c-1.90515,2.44138 -4.76941,3.84082 -7.85166,3.84082c-0.00436,0 -0.00436,0 -0.00436,0h-0.09155c-48.79712,0 -88.50009,-39.69861 -88.50009,-88.50009c0,-23.62909 9.20314,-45.85002 25.90916,-62.56477c16.70603,-16.71475 38.9226,-25.92224 62.55605,-25.93532c48.74044,0 88.44341,39.6245 88.53497,88.33006zM352.80008,275.17825c-1.03323,2.29751 -2.47626,4.40757 -4.27242,6.20373c-1.79616,1.80052 -3.91057,3.24355 -6.20809,4.27678l48.98894,48.98458c2.84683,2.84683 7.47673,2.84683 10.32356,0l0.15695,-0.15259c1.37764,-1.37764 2.13621,-3.21303 2.13621,-5.16178c0,-1.95311 -0.75857,-3.7885 -2.13621,-5.16614zM343.59695,276.45125c2.26264,-2.267 3.64899,-5.14434 3.99776,-8.33122c0.46648,-4.23318 -0.98963,-8.38789 -3.99776,-11.39602c-3.72747,-3.72747 -16.88477,-5.94651 -26.47155,-6.74432c0.79781,9.59114 3.01685,22.74845 6.73996,26.47155c2.6332,2.6332 6.13397,4.08495 9.85708,4.08495c0.51443,0 1.03323,-0.03052 1.5433,-0.08283c3.18252,-0.35313 6.06422,-1.73512 8.33122,-4.00212zM415.0248,265.34296c-0.08719,-44.86475 -36.65996,-81.36777 -81.52471,-81.36777c-44.96938,0.0218 -81.52471,36.59021 -81.52471,81.52471c0,44.9563 36.57277,81.52471 81.52471,81.52471h0.08719c0.92424,0 1.78744,-0.42288 2.36291,-1.15966c0.58419,-0.74549 0.78909,-1.69589 0.56239,-2.60705c-1.04195,-4.2201 -1.5651,-8.57971 -1.56074,-12.96548c0.0218,-11.8189 3.92801,-22.76588 10.5023,-31.63333l-11.1606,-11.16496c-0.19182,0.00872 -0.37929,0.01744 -0.57111,0.01744c-5.58466,0 -10.83799,-2.17545 -14.7878,-6.12961c-7.55085,-7.54649 -8.90232,-32.19572 -9.03311,-34.97715c-0.04796,-0.98091 0.32261,-1.93567 1.01579,-2.62885c0.69318,-0.69318 1.64793,-1.06374 2.62885,-1.02015c2.78579,0.13079 27.43067,1.48227 34.98151,9.03311c4.10239,4.10239 6.27348,9.62166 6.11217,15.36327l13.70661,13.70661c6.11217,-2.4937 12.77802,-3.89313 19.75339,-3.93237h0.31825c7.38082,0 14.53058,1.47355 21.24874,4.39013c0.39236,0.17002 0.80217,0.25722 1.21633,0.25722c1.29044,0 2.74655,-0.88936 3.02993,-2.58089c0.74549,-4.48168 1.12042,-9.07671 1.1117,-13.64994z"/></g><g fill="none" font-family="sans-serif" font-weight="normal" font-size="12" text-anchor="start"/><g fill="none" font-family="sans-serif" font-weight="normal" font-size="12" text-anchor="start"/><g fill="none" font-family="sans-serif" font-weight="normal" font-size="12" text-anchor="start"/></g></g></g></svg>