<svg version="1.1" xmlns="http://www.w3.org/2000/svg" xmlns:xlink="http://www.w3.org/1999/xlink" width="367.68229" height="167.15868" viewBox="0,0,367.68229,167.15868"><g transform="translate(-56.81771,-106.88495)"><g data-paper-data="{&quot;isPaintingLayer&quot;:true}" fill-rule="nonzero" stroke-dasharray="" stroke-dashoffset="0" style="mix-blend-mode: normal"><path d="M196.8092,203.82944c-8.56593,54.45376 -52.13129,47.40947 -94.26216,42.53708c-42.13087,-4.87239 -50.02541,-18.44976 -41.51619,-56.82954c8.50922,-38.37978 35.78185,-65.94887 79.62941,-64.99666c43.84756,0.95222 64.71487,24.83535 56.14894,79.28912z" fill="#f7aa32" stroke="none" stroke-width="1.99937" stroke-linecap="round" stroke-linejoin="round" stroke-miterlimit="10"/><path d="M178.77347,235.13673c9.55208,9.11688 -33.68043,22.18661 -79.28911,12.93127c-45.60869,-9.25534 -43.90007,-30.01984 -41.85649,-40.49531c2.04358,-10.47546 36.41508,-21.18441 65.67725,-12.93126c29.26217,8.25314 38.81774,27.96773 55.46835,40.4953z" fill="#fbede4" stroke="none" stroke-width="1.99937" stroke-linecap="round" stroke-linejoin="round" stroke-miterlimit="10"/><path d="M98.77638,167.20235c-0.7212,5.9707 -4.78465,10.67177 -10.04089,10.41873c-5.25625,-0.25303 -10.58336,-5.53485 -8.99368,-11.33506c1.7645,-6.43803 7.01877,-9.78691 10.04089,-10.41874c7.52143,-1.57248 9.79765,4.67901 8.99368,11.33506z" fill="#2c2c2b" stroke="none" stroke-width="1.99937" stroke-linecap="round" stroke-linejoin="round" stroke-miterlimit="10"/><path d="M115.12233,192.98699c-0.87826,5.94963 -4.51942,9.82156 -10.53352,9.82156c-6.0141,0 -10.75086,-4.87699 -10.88949,-10.88949c-0.12985,-5.63144 5.18544,-9.95933 11.19954,-9.95933c6.0141,0 10.9163,6.33373 10.22346,11.02727z" fill="#2c2c2b" stroke="none" stroke-width="1.99937" stroke-linecap="round" stroke-linejoin="round" stroke-miterlimit="10"/><path d="M120.58276,208.5936c-8.75777,0.91471 -19.11833,4.81704 -17.35513,-9.8686c-3.78948,12.42825 -9.90353,9.24754 -15.31335,7.82682" fill="none" stroke="#2c2c2b" stroke-width="6" stroke-linecap="round" stroke-linejoin="round" stroke-miterlimit="4"/><path d="M139.48986,171.26872c-0.7212,5.9707 -4.78465,10.67177 -10.04089,10.41873c-5.25625,-0.25303 -10.58336,-5.53485 -8.99368,-11.33506c1.7645,-6.43803 7.01877,-9.78691 10.04089,-10.41874c7.52143,-1.57248 9.79765,4.67901 8.99368,11.33506z" fill="#2c2c2b" stroke="none" stroke-width="1.99937" stroke-linecap="round" stroke-linejoin="round" stroke-miterlimit="10"/><path d="M132.86573,125.16054l-42.71935,16.12585c1.38291,-10.84487 8.03635,-31.03378 18.95495,-33.94916c10.9186,-2.91538 18.66131,8.87523 23.76441,17.8233z" fill="#f7aa32" stroke="none" stroke-width="18" stroke-linecap="round" stroke-linejoin="round" stroke-miterlimit="4"/><path d="M166.24908,128.83837c7.88741,-4.55147 17.96803,-13.88457 27.15933,-6.50692c9.1913,7.37764 5.20439,24.79732 2.54618,37.34407z" fill="#f7aa32" stroke="none" stroke-width="18" stroke-linecap="round" stroke-linejoin="round" stroke-miterlimit="4"/><g stroke="none" stroke-width="1" stroke-linecap="butt" stroke-linejoin="miter" stroke-miterlimit="10"><path d="M216.10466,266.56835c-1.56942,0 -3.04393,-0.61007 -4.15183,-1.71796l-28.60932,-28.60695l2.50908,-1.1283c1.06044,-0.47695 2.00698,-1.12878 2.81352,-1.93722c0.81129,-0.81129 1.46288,-1.75759 1.93817,-2.81447l1.1283,-2.50884l28.60932,28.60695c1.10837,1.10861 1.71891,2.58383 1.71891,4.1542c0,1.56895 -0.6103,3.04322 -1.71891,4.15183l-0.09586,0.09349c-1.10671,1.10102 -2.57695,1.70729 -4.14138,1.70729z" fill="#eb7830"/><path d="M181.95182,235.95656c-2.53305,0 -4.91494,-0.98712 -6.70742,-2.77935c-2.87545,-2.87545 -3.90766,-11.86249 -4.21803,-15.59313l-0.1858,-2.23525l2.23501,0.18603c3.72993,0.31061 12.71554,1.34305 15.5929,4.22016c2.04637,2.04613 3.038,4.87199 2.72051,7.75291c-0.23658,2.16217 -1.17695,4.1224 -2.71908,5.66786c-1.54213,1.54213 -3.50189,2.48369 -5.66904,2.72383c-0.37136,0.03844 -0.71922,0.05695 -1.04905,0.05695z" fill="#f5c525"/><path d="M181.83081,272.14533c-25.5139,0 -46.27113,-20.75699 -46.27113,-46.27113c0,-25.5018 20.75675,-46.25879 46.27018,-46.27113c25.46526,0 46.22249,20.71736 46.27208,46.18215c0.00498,2.59237 -0.20739,5.19803 -0.63095,7.7446c-0.29044,1.73457 -1.77135,2.99149 -3.52159,2.99149c-0.48573,0 -0.96244,-0.09966 -1.41637,-0.29637c-3.41386,-1.4821 -7.05053,-2.23312 -10.81131,-2.23312h-0.17322c-3.4504,0.01946 -6.82986,0.69217 -10.03443,1.99986l-1.16769,0.47647l-8.93033,-8.93057l0.02302,-0.81722c0.07403,-2.63128 -0.91047,-5.10549 -2.77152,-6.9663c-2.92813,-2.92813 -12.9151,-4.13427 -17.78662,-4.36277c0.32081,6.78548 1.82213,15.24456 4.36372,17.78472c1.79152,1.79366 4.17294,2.78078 6.70694,2.78078c0.07475,0 0.14783,-0.00403 0.22258,-0.00736l0.83786,-0.03915l7.8248,7.82789l-0.97478,1.31505c-3.48457,4.7002 -5.3321,10.26389 -5.34277,16.09049c-0.00237,2.2343 0.26481,4.4546 0.79397,6.5985c0.26481,1.06447 0.02634,2.17569 -0.65491,3.04511c-0.67319,0.8623 -1.68735,1.35847 -2.78006,1.35847h-0.04746zM170.6237,250.54762c-1.40498,0 -2.7803,0.56949 -3.77359,1.56302c-0.99566,0.9921 -1.56539,2.36766 -1.56539,3.77596c0,1.40641 0.57068,2.78339 1.56539,3.77857c0.99281,0.98925 2.36908,1.55803 3.77359,1.55803c1.40451,0 2.78054,-0.56925 3.77478,-1.56183c0.99376,-0.99376 1.5642,-2.37003 1.5642,-3.77478c0,-1.40688 -0.56973,-2.78173 -1.56302,-3.77145c-0.99708,-0.99708 -2.37264,-1.56752 -3.77596,-1.56752zM152.08678,232.43544c-0.68173,0 -1.35112,0.1298 -1.98918,0.38559c-2.72881,1.09841 -4.05952,4.21542 -2.9642,6.94708c0.81864,2.03237 2.76512,3.34742 4.95813,3.34742c0.68529,0 1.35325,-0.12932 1.98562,-0.38417c1.32454,-0.53271 2.36173,-1.54807 2.92244,-2.86051c0.55905,-1.30888 0.57424,-2.75989 0.04295,-4.0861c-0.81698,-2.03403 -2.76227,-3.34932 -4.95576,-3.34932zM213.28331,214.44167c-1.40308,0 -2.77983,0.57091 -3.77715,1.56657c-0.99258,0.99068 -1.56183,2.36576 -1.56183,3.7724c0,1.40973 0.56878,2.78528 1.56064,3.77359c0.99566,0.99566 2.37193,1.56539 3.77833,1.56539c1.40664,0 2.78173,-0.56902 3.7724,-1.56183c0.99637,-0.99447 1.56657,-2.37027 1.56657,-3.77715c0,-1.40498 -0.57044,-2.78149 -1.56539,-3.77596c-0.9959,-0.99234 -2.37217,-1.56302 -3.77359,-1.56302zM148.18078,209.62591c-0.59464,1.26474 -0.67129,2.68847 -0.21522,4.00922c0.46437,1.34898 1.42468,2.43457 2.70532,3.05817c0.73654,0.35973 1.52315,0.54149 2.33895,0.54149c2.05966,0 3.89983,-1.1499 4.80247,-3.00074c1.28871,-2.64718 0.18485,-5.84962 -2.46091,-7.13762c-0.73512,-0.35807 -1.52125,-0.53936 -2.33681,-0.53936c-2.06084,0 -3.9003,1.14895 -4.80128,2.99837zM198.4457,193.17593c-1.876,0 -3.57996,0.95295 -4.5583,2.54847c-1.53596,2.50884 -0.7439,5.80382 1.76637,7.3443c0.8381,0.51325 1.80054,0.78519 2.78244,0.78519c1.87434,0 3.57854,-0.9539 4.5583,-2.55156c0.74342,-1.21586 0.97051,-2.64932 0.6383,-4.03413c-0.33197,-1.38576 -1.18573,-2.5601 -2.4042,-3.30708c-0.83858,-0.51325 -1.80125,-0.78519 -2.78291,-0.78519zM172.77353,189.80644c-0.51183,0 -1.022,0.07403 -1.51674,0.21949c-1.36607,0.4041 -2.49461,1.31647 -3.17467,2.5684c-0.68125,1.25217 -0.83407,2.69535 -0.43068,4.06522c0.66464,2.25139 2.76939,3.82484 5.11735,3.82484c0.51159,0 1.022,-0.07403 1.51651,-0.21949c1.36607,-0.40363 2.49413,-1.316 3.17467,-2.5684c0.6822,-1.2543 0.83549,-2.69678 0.43139,-4.06261c-0.66702,-2.25329 -2.77152,-3.82745 -5.11782,-3.82745z" fill="#f0da77"/><path d="M170.6237,261.2232c-1.40498,0 -2.78078,-0.56759 -3.7743,-1.55732c-0.99542,-0.99542 -1.56468,-2.37217 -1.56468,-3.77952c0,-1.40617 0.56925,-2.7822 1.56207,-3.77454c0.994,-0.994 2.37074,-1.56444 3.77691,-1.56444c1.40451,0 2.78101,0.57091 3.77691,1.56681c0.99281,0.99281 1.56207,2.36766 1.56207,3.77216c0,1.40593 -0.56925,2.78149 -1.56207,3.7743c-0.9978,0.994 -2.37335,1.56254 -3.77691,1.56254z" fill="#6c3ec7"/><path d="M152.09152,243.11553c-2.19468,0 -4.14067,-1.31505 -4.95789,-3.35027c-0.53105,-1.32027 -0.51444,-2.77152 0.04698,-4.08515c0.56095,-1.31291 1.5979,-2.32827 2.91983,-2.85908c0.63095,-0.25532 1.30081,-0.38583 1.98634,-0.38583c2.19396,0 4.13925,1.31647 4.95599,3.35359c0.53058,1.32264 0.51468,2.77318 -0.04461,4.08325c-0.56024,1.3122 -1.5979,2.32803 -2.9222,2.86003c-0.63451,0.25437 -1.302,0.38346 -1.98444,0.38346z" fill="#3e81c8"/><path d="M153.00982,217.23455c-0.81769,0 -1.60478,-0.18247 -2.33942,-0.5422c-1.27922,-0.62122 -2.24237,-1.70776 -2.70651,-3.0565c-0.45986,-1.33925 -0.3761,-2.77366 0.23397,-4.04552l0.0382,-0.08566l0.02397,-0.04651c0.91854,-1.78962 2.74044,-2.90156 4.75477,-2.90156c0.81793,0 1.60525,0.18271 2.3399,0.54268c1.27637,0.62146 2.2381,1.708 2.70295,3.05722c0.46461,1.34827 0.37681,2.79596 -0.24678,4.07684c-0.90169,1.85108 -2.74115,3.00122 -4.80105,3.00122z" fill="#3ec775"/><path d="M172.76878,200.4844c-2.3501,0 -4.45437,-1.57417 -5.11711,-3.82816c-0.40434,-1.36678 -0.25224,-2.81044 0.42902,-4.06237c0.6822,-1.25407 1.81146,-2.1662 3.18013,-2.56817c0.49047,-0.14498 1.00064,-0.21925 1.51271,-0.21925c2.3463,0 4.4501,1.57322 5.11616,3.82555c0.40505,1.36939 0.25295,2.81305 -0.42807,4.06498c-0.67983,1.24956 -1.80742,2.16074 -3.17539,2.56674c-0.49522,0.14664 -1.00539,0.22068 -1.51746,0.22068z" fill="#ebc92f"/><path d="M198.43621,203.85388c-0.9781,0 -1.93912,-0.27075 -2.77935,-0.78281c-2.5143,-1.54474 -3.30447,-4.83901 -1.76732,-7.34691c0.97644,-1.59529 2.67993,-2.54823 4.55616,-2.54823c0.98,0 1.94291,0.27193 2.78434,0.78637c1.218,0.74603 2.07105,1.9199 2.40278,3.30661c0.33149,1.38813 0.10512,2.8204 -0.63783,4.03342c-0.98332,1.59908 -2.68681,2.55156 -4.55877,2.55156z" fill="#eb7830"/><path d="M213.28331,225.11962c-1.40973,0 -2.78742,-0.57115 -3.77928,-1.56705c-0.98925,-0.98569 -1.55969,-2.36244 -1.55969,-3.77193c0,-1.40854 0.57044,-2.78434 1.56491,-3.77478c0.99305,-0.99329 2.36956,-1.5642 3.77406,-1.5642c1.40451,0 2.7803,0.5702 3.77454,1.56444c0.99424,0.99376 1.56444,2.36956 1.56444,3.77454c0,1.40593 -0.5702,2.78267 -1.56444,3.77691c-0.99281,0.99281 -2.36861,1.56207 -3.77454,1.56207z" fill="#eb2f2f"/><g fill="#231f20"><path d="M177.86098,255.88636c0,1.90542 -0.77356,3.7705 -2.12135,5.1183c-1.34779,1.34542 -3.21288,2.11661 -5.11593,2.11661c-1.90542,0 -3.76813,-0.77119 -5.11593,-2.11423c-1.35017,-1.35017 -2.12135,-3.21525 -2.12135,-5.12067c0,-1.90779 0.77119,-3.77288 2.12135,-5.1183c1.34542,-1.34542 3.2105,-2.11898 5.11593,-2.11898c1.90305,0 3.76813,0.77356 5.11593,2.12135c1.34779,1.34305 2.12135,3.20813 2.12135,5.11593zM174.06438,255.88636c0,-0.90644 -0.3678,-1.79152 -1.0061,-2.42983c-0.64305,-0.64305 -1.53051,-1.01085 -2.43457,-1.01085c-0.90644,0 -1.7939,0.3678 -2.43457,1.00847c-0.64068,0.64068 -1.0061,1.52576 -1.0061,2.4322c0,0.90644 0.36542,1.7939 1.0061,2.43457c0.64068,0.6383 1.52813,1.00373 2.43457,1.00373c0.90407,0 1.79152,-0.36542 2.43457,-1.0061c0.6383,-0.6383 1.0061,-1.52576 1.0061,-2.4322z"/><path d="M158.74507,240.61689c-0.75932,1.77729 -2.16407,3.15356 -3.95796,3.87491c-0.85898,0.34644 -1.76779,0.52203 -2.69559,0.52203c-2.97322,0 -5.60948,-1.78203 -6.71999,-4.53932c-1.48542,-3.70406 0.31797,-7.92541 4.01966,-9.41558c0.86373,-0.34644 1.77017,-0.52203 2.69559,-0.52203c2.97322,0 5.60948,1.78203 6.71762,4.54169c0.71898,1.7939 0.7,3.76101 -0.05932,5.5383zM155.28067,236.4952c-0.52678,-1.31457 -1.77966,-2.16169 -3.19389,-2.16169c-0.43898,0 -0.86847,0.08305 -1.27898,0.24915c-1.76068,0.70712 -2.61966,2.71695 -1.91254,4.47525c0.52678,1.3122 1.78203,2.15932 3.19627,2.15932c0.43898,0 0.86847,-0.08305 1.27661,-0.24678c0.85661,-0.34407 1.52339,-0.99898 1.88407,-1.84373c0.36068,-0.84474 0.37017,-1.77966 0.02847,-2.63152z"/><path d="M159.51863,215.06573c-1.22441,2.51051 -3.7183,4.06711 -6.50881,4.06711c-1.10813,0 -2.17356,-0.24678 -3.17017,-0.73322c-1.73457,-0.84474 -3.03966,-2.3183 -3.66847,-4.14542c-0.61932,-1.7939 -0.51491,-3.72067 0.29186,-5.43626c0.01186,-0.03085 0.0261,-0.06169 0.04271,-0.09254c1.22203,-2.51051 3.7183,-4.06711 6.50881,-4.06711c1.10339,0 2.16881,0.24441 3.16779,0.73085c3.58779,1.74644 5.08271,6.08881 3.33627,9.6766zM154.51898,208.80371c-0.47458,-0.23254 -0.98,-0.34881 -1.5044,-0.34881c-1.30271,0 -2.47254,0.71424 -3.06576,1.86983c-0.00949,0.02136 -0.01898,0.04271 -0.02847,0.06407c-0.40339,0.82576 -0.46034,1.7583 -0.16136,2.62915c0.29898,0.86847 0.92068,1.56847 1.74644,1.96949c0.47458,0.23254 0.98,0.34881 1.5044,0.34881c1.32644,0 2.51288,-0.74034 3.09423,-1.9339c0.83051,-1.7061 0.12102,-3.76813 -1.58508,-4.59864z"/><path d="M204.61281,202.2949c-1.32881,2.16644 -3.63762,3.45728 -6.1766,3.45728c-1.33118,0 -2.63627,-0.3678 -3.77525,-1.06542c-3.40271,-2.08813 -4.47525,-6.55152 -2.39186,-9.95423c1.32644,-2.16407 3.63525,-3.45491 6.1766,-3.45491c1.33118,0 2.63627,0.3678 3.77525,1.06542c1.64915,1.01085 2.80712,2.60067 3.25796,4.48237c0.45085,1.87932 0.14237,3.82033 -0.8661,5.46948zM201.78672,197.7105c-0.21356,-0.8922 -0.76407,-1.64915 -1.54712,-2.12847c-0.54339,-0.3322 -1.16271,-0.5078 -1.7939,-0.5078c-1.21017,0 -2.30881,0.61458 -2.93762,1.64203c-0.99186,1.6183 -0.48169,3.73966 1.13661,4.73389c0.54102,0.32983 1.16034,0.50542 1.79152,0.50542c1.2078,0 2.30644,-0.61458 2.94,-1.6444c0.47932,-0.78305 0.62407,-1.7061 0.41051,-2.60067z"/><path d="M179.1281,198.6027c-0.92305,1.69898 -2.45118,2.93525 -4.30677,3.48339c-0.66915,0.19695 -1.35966,0.29661 -2.05254,0.29661c-3.1844,0 -6.0366,-2.13322 -6.9383,-5.18711c-0.54576,-1.85322 -0.33932,-3.81084 0.58373,-5.50745c0.92305,-1.69898 2.45356,-2.93525 4.30677,-3.48339c0.66915,-0.19695 1.35966,-0.29661 2.05254,-0.29661c3.18203,0 6.03423,2.13322 6.9383,5.18711c0.54813,1.85322 0.33932,3.81084 -0.58373,5.50745zM176.06946,194.17017c-0.42949,-1.4522 -1.7844,-2.46542 -3.29593,-2.46542c-0.32983,0 -0.65729,0.04746 -0.97763,0.14237c-0.88034,0.25864 -1.60881,0.84712 -2.04779,1.6539c-0.43898,0.80678 -0.53627,1.73695 -0.27525,2.61966c0.42712,1.4522 1.7844,2.46542 3.29593,2.46542c0.32746,0 0.65729,-0.04746 0.97763,-0.14237c0.88034,-0.26102 1.60881,-0.84712 2.04779,-1.6539c0.43898,-0.80678 0.53627,-1.73695 0.27525,-2.61966z"/><path d="M220.52059,219.78064c0,1.90542 -0.77356,3.77288 -2.12135,5.1183c-1.34542,1.34779 -3.21288,2.11898 -5.11593,2.11898c-1.90542,0 -3.7705,-0.77119 -5.1183,-2.11898c-1.34779,-1.34305 -2.11898,-3.20813 -2.11898,-5.1183c0,-1.90305 0.77119,-3.7705 2.11898,-5.11593c1.35017,-1.34779 3.21525,-2.12135 5.1183,-2.12135c1.90068,0 3.76576,0.77356 5.11593,2.11898c1.34779,1.34779 2.12135,3.21525 2.12135,5.1183zM216.72399,219.78064c0,-0.90407 -0.3678,-1.79152 -1.00847,-2.4322c-0.64068,-0.64068 -1.52813,-1.00847 -2.4322,-1.00847c-0.90407,0 -1.79152,0.3678 -2.43457,1.01085c-0.64068,0.6383 -1.0061,1.52576 -1.0061,2.42983c0,0.90881 0.36542,1.7939 1.0061,2.4322c0.64068,0.64305 1.52813,1.00847 2.43457,1.00847c0.90407,0 1.79152,-0.36542 2.4322,-1.0061c0.64068,-0.64068 1.00847,-1.52813 1.00847,-2.43457z"/><path d="M230.00024,225.78165c0.00475,2.70034 -0.21593,5.41254 -0.65729,8.06067c-0.44373,2.65288 -2.7122,4.57728 -5.39355,4.57728c-0.74746,0 -1.4783,-0.15424 -2.17356,-0.45322c-3.17728,-1.37864 -6.56101,-2.07627 -10.05389,-2.07627h-0.15186c-2.72881,0.01661 -5.35796,0.46983 -7.82101,1.29322l17.93422,17.93659c1.46881,1.46644 2.27559,3.41932 2.27559,5.49559c0,2.0739 -0.80678,4.02677 -2.27559,5.49321l-0.08305,0.08542c-1.51627,1.5139 -3.50474,2.27084 -5.49559,2.27084c-1.99085,0 -3.97932,-0.75695 -5.49559,-2.27084l-19.55489,-19.55489c-2.90678,4.1122 -4.62711,9.11897 -4.6366,14.50778c-0.00237,2.07627 0.24678,4.14067 0.74034,6.13864c0.40339,1.63491 0.03797,3.33627 -1.00135,4.66745c-1.03695,1.32881 -2.59593,2.09051 -4.27355,2.09051c-0.00237,0 -0.00237,0 -0.00237,0h-0.04983c-26.55963,0 -48.16943,-21.60743 -48.16943,-48.16943c0,-12.861 5.00915,-24.95556 14.10202,-34.05318c9.09287,-9.09762 21.18506,-14.10914 34.04843,-14.11625c26.52878,0 48.13859,21.56709 48.18842,48.07689zM192.33554,231.14199c-0.56237,1.25051 -1.34779,2.39898 -2.32542,3.37661c-0.97763,0.98 -2.12847,1.76542 -3.37898,2.32779l26.66404,26.66166c1.54949,1.54949 4.06949,1.54949 5.61898,0l0.08542,-0.08305c0.74983,-0.74983 1.16271,-1.74881 1.16271,-2.80949c0,-1.06305 -0.41288,-2.06203 -1.16271,-2.81186zM187.32639,231.83487c1.23152,-1.2339 1.9861,-2.8 2.17593,-4.53457c0.2539,-2.30407 -0.53864,-4.56542 -2.17593,-6.2027c-2.02881,-2.02881 -9.19016,-3.23661 -14.40812,-3.67084c0.43424,5.22033 1.64203,12.38168 3.66847,14.40812c1.43322,1.43322 3.33864,2.22339 5.36508,2.22339c0.28,0 0.56237,-0.01661 0.84,-0.04508c1.7322,-0.1922 3.30067,-0.94441 4.53457,-2.1783zM226.20364,225.78877c-0.04746,-24.41929 -19.95354,-44.2874 -44.37283,-44.2874c-24.47624,0.01186 -44.37283,19.91557 -44.37283,44.37283c0,24.46912 19.90608,44.37283 44.37283,44.37283h0.04746c0.50305,0 0.97288,-0.23017 1.2861,-0.63119c0.31797,-0.40576 0.42949,-0.92305 0.3061,-1.41898c-0.56712,-2.29695 -0.85186,-4.66982 -0.84949,-7.05694c0.01186,-6.43287 2.13796,-12.39117 5.71626,-17.21761l-6.07457,-6.07694c-0.10441,0.00475 -0.20644,0.00949 -0.31085,0.00949c-3.03966,0 -5.89898,-1.18407 -8.0488,-3.33627c-4.10983,-4.10745 -4.84542,-17.52371 -4.9166,-19.0376c-0.0261,-0.5339 0.17559,-1.05356 0.55288,-1.43085c0.37729,-0.37729 0.89695,-0.57898 1.43085,-0.55525c1.51627,0.07119 14.93015,0.80678 19.03998,4.9166c2.23288,2.23288 3.41457,5.23694 3.32678,8.36202l7.46033,7.46033c3.32678,-1.35729 6.95491,-2.11898 10.75151,-2.14034h0.17322c4.01728,0 7.9088,0.80203 11.56541,2.38949c0.21356,0.09254 0.43661,0.14 0.66203,0.14c0.70237,0 1.49491,-0.48407 1.64915,-1.40474c0.40576,-2.43932 0.60983,-4.94033 0.60508,-7.42948z"/></g><g fill="none" font-family="sans-serif" font-weight="normal" font-size="12" text-anchor="start"/><g fill="none" font-family="sans-serif" font-weight="normal" font-size="12" text-anchor="start"/><g fill="none" font-family="sans-serif" font-weight="normal" font-size="12" text-anchor="start"/></g><path d="M284.5,233.66667l-33.5,-0.5l-0.5,-63l32.5,-1.5" fill="none" stroke="#231f20" stroke-width="5" stroke-linecap="round" stroke-linejoin="miter" stroke-miterlimit="10"/><path d="M273.5,201.16667l-22.5,0.5" fill="none" stroke="#231f20" stroke-width="5" stroke-linecap="round" stroke-linejoin="miter" stroke-miterlimit="10"/><path d="M334.5,165.16667l0.5,67" fill="none" stroke="#231f20" stroke-width="5" stroke-linecap="round" stroke-linejoin="miter" stroke-miterlimit="10"/><path d="M361,231.66667l-0.5,-36.5" fill="none" stroke="#231f20" stroke-width="5" stroke-linecap="round" stroke-linejoin="miter" stroke-miterlimit="10"/><path d="M399,162.16667l0.5,69.5" fill="none" stroke="#231f20" stroke-width="5" stroke-linecap="round" stroke-linejoin="miter" stroke-miterlimit="10"/><path d="M422,190.16667l-37.5,-1" fill="none" stroke="#231f20" stroke-width="5" stroke-linecap="round" stroke-linejoin="miter" stroke-miterlimit="10"/><path d="M333.5,212.91667c0,11.18377 -6.49187,20.25 -14.5,20.25c-8.00813,0 -14.5,-9.06623 -14.5,-20.25c0,-11.18377 6.49187,-20.25 14.5,-20.25c8.00813,0 14.5,9.06623 14.5,20.25z" fill="none" stroke="#231f20" stroke-width="5" stroke-linecap="butt" stroke-linejoin="miter" stroke-miterlimit="10"/><path d="M366.5,177.16667c0,3.58985 -2.79822,6.5 -6.25,6.5c-3.45178,0 -6.25,-2.91015 -6.25,-6.5c0,-3.58985 2.79822,-6.5 6.25,-6.5c3.45178,0 6.25,2.91015 6.25,6.5z" fill="#ebc92f" stroke="#231f20" stroke-width="5" stroke-linecap="butt" stroke-linejoin="miter" stroke-miterlimit="10"/></g></g></svg>