<svg version="1.1" xmlns="http://www.w3.org/2000/svg" xmlns:xlink="http://www.w3.org/1999/xlink" width="599.76727" height="371.20721" viewBox="0,0,599.76727,371.20721"><g transform="translate(59.88364,5.60361)"><g data-paper-data="{&quot;isPaintingLayer&quot;:true}" fill-rule="nonzero" stroke-dasharray="" stroke-dashoffset="0" style="mix-blend-mode: normal"><path d="M-59.88364,365.6036v-371.20721h599.76727v371.20721z" fill="#ffd966" stroke="none" stroke-width="0" stroke-linecap="butt" stroke-linejoin="miter" stroke-miterlimit="10"/><g><path d="M502.64516,247.38291c-18.1111,115.13253 -110.22209,100.23867 -199.30013,89.93689c-89.07803,-10.30178 -105.7696,-39.00865 -87.7784,-120.15569c17.99119,-81.14704 75.65419,-139.43685 168.36185,-137.42357c92.70766,2.0133 136.82778,52.50981 118.71668,167.64237z" fill="#f7aa32" stroke="none" stroke-width="1.99937" stroke-linecap="round" stroke-linejoin="round" stroke-miterlimit="10"/><path d="M464.5119,313.57646c20.19613,19.27598 -71.21112,46.90954 -167.64235,27.34081c-96.43125,-19.56873 -92.81868,-63.47147 -88.49791,-85.61994c4.32078,-22.14845 76.99304,-44.79057 138.86255,-27.34079c61.86952,17.44976 82.07302,59.13266 117.2777,85.61992z" fill="#fbede4" stroke="none" stroke-width="1.99937" stroke-linecap="round" stroke-linejoin="round" stroke-miterlimit="10"/><path d="M295.37267,169.94162c-1.52485,12.62396 -10.11627,22.56351 -21.22963,22.0285c-11.11338,-0.53499 -22.37658,-11.70243 -19.01549,-23.96591c3.73071,-13.61204 14.83991,-20.69263 21.22963,-22.02852c15.90269,-3.32472 20.71534,9.89291 19.01549,23.96591z" fill="#2c2c2b" stroke="none" stroke-width="1.99937" stroke-linecap="round" stroke-linejoin="round" stroke-miterlimit="10"/><path d="M329.93318,224.45853c-1.85692,12.57941 -9.55549,20.7659 -22.2712,20.7659c-12.71572,0 -22.73073,-10.3115 -23.02384,-23.02384c-0.27454,-11.90665 10.96367,-21.05718 23.67938,-21.05718c12.71572,0 23.08052,13.39152 21.61564,23.31515z" fill="#2c2c2b" stroke="none" stroke-width="1.99937" stroke-linecap="round" stroke-linejoin="round" stroke-miterlimit="10"/><path d="M341.47828,257.45586c-18.51671,1.93399 -40.42222,10.18475 -36.69425,-20.86535c-8.01216,26.27727 -20.93921,19.55223 -32.37728,16.54838" fill="none" stroke="#2c2c2b" stroke-width="12" stroke-linecap="round" stroke-linejoin="round" stroke-miterlimit="4"/><path d="M381.45389,178.53922c-1.52485,12.62396 -10.11627,22.56351 -21.22963,22.0285c-11.11338,-0.53499 -22.37658,-11.70243 -19.01549,-23.96591c3.73071,-13.61204 14.83991,-20.69263 21.22963,-22.02852c15.90269,-3.32472 20.71534,9.89291 19.01549,23.96591z" fill="#2c2c2b" stroke="none" stroke-width="1.99937" stroke-linecap="round" stroke-linejoin="round" stroke-miterlimit="10"/><path d="M367.44837,81.05189l-90.32227,34.09517c2.92391,-22.9295 16.99139,-65.61526 40.07678,-71.7793c23.08539,-6.16404 39.45593,18.76505 50.24551,37.68411z" fill="#f7aa32" stroke="none" stroke-width="18" stroke-linecap="round" stroke-linejoin="round" stroke-miterlimit="4"/><path d="M438.03137,88.82799c16.67649,-9.62325 37.99012,-29.35639 57.42344,-13.75769c19.43333,15.59867 11.00373,52.42941 5.38343,78.95722z" fill="#f7aa32" stroke="none" stroke-width="18" stroke-linecap="round" stroke-linejoin="round" stroke-miterlimit="4"/><g stroke="none" stroke-width="1" stroke-linecap="butt" stroke-linejoin="miter" stroke-miterlimit="10"><path d="M524.27044,160.95298l-7.81183,22.34009l-294.4823,-51.62432l7.81183,-22.34009l10.51681,1.84365c5.78439,1.01403 11.68923,-1.50744 13.12138,-5.60308l5.20784,-14.89326c14.06135,-40.21233 63.90174,-67.82965 119.34213,-69.96564l1.43215,-4.09564c1.30185,-3.72301 7.20611,-6.24459 12.46481,-5.32271l53.63776,9.40299c5.25812,0.92178 8.81942,5.10229 7.51743,8.8257l-1.43215,4.09564c47.49826,20.57672 72.86162,62.95824 58.80026,103.17057l-4.55691,13.03175c-1.43215,4.09564 2.12901,8.27655 7.9134,9.29059z" fill="#f4ba48"/><g fill="#b58024"><path d="M465.12395,154.53595l-178.79332,-31.34342c-3.15533,-0.55315 -4.73792,-2.41116 -3.9567,-4.64529c0.78123,-2.23413 3.40536,-3.35469 6.56069,-2.80154l178.79274,31.34332c3.15533,0.55315 4.73792,2.41116 3.9567,4.64529c-0.78123,2.23413 -3.40536,3.35469 -6.56011,2.80164"/><path d="M443.78505,55.95651c-3.15533,-0.55315 -4.73792,-2.41116 -3.9567,-4.64529l5.20784,-14.89326c0.78123,-2.23413 3.40536,-3.35469 6.56069,-2.80154c3.15533,0.55315 4.73792,2.41116 3.9567,4.64529l-5.20784,14.89326c-0.78123,2.23413 -3.40536,3.35469 -6.56069,2.80154"/><path d="M370.16448,43.05043c-3.15533,-0.55315 -4.73792,-2.41116 -3.9567,-4.64529l5.20784,-14.89326c0.78123,-2.23413 3.40536,-3.35469 6.56069,-2.80154c3.15533,0.55315 4.73792,2.41116 3.9567,4.64529l-5.20784,14.89326c-0.78123,2.23413 -3.40536,3.35469 -6.56069,2.80154"/><path d="M400.46479,68.12055c-3.15533,-0.55315 -4.73792,-2.41116 -3.9567,-4.64529l15.62366,-44.68018c0.78123,-2.23413 3.40536,-3.35469 6.56069,-2.80154c3.15533,0.55315 4.73792,2.41116 3.9567,4.64529l-15.62366,44.68018c-0.65093,1.8615 -3.40536,3.35469 -6.56069,2.80154"/><path d="M477.92527,49.29641c13.30225,9.84024 23.06362,21.82544 29.1489,34.74678v0l-63.18813,3.54389l34.03923,-38.29068z"/><path d="M344.35685,25.88115l4.87499,45.11255l-53.55354,-24.0089v0c13.8971,-9.41875 30.42863,-16.79467 48.67854,-21.10365z"/></g><g fill="none" font-family="sans-serif" font-weight="normal" font-size="12" text-anchor="start"/><g fill="none" font-family="sans-serif" font-weight="normal" font-size="12" text-anchor="start"/><g fill="none" font-family="sans-serif" font-weight="normal" font-size="12" text-anchor="start"/><g fill="none" font-family="sans-serif" font-weight="normal" font-size="12" text-anchor="start"/><g fill="none" font-family="sans-serif" font-weight="normal" font-size="12" text-anchor="start"/><g fill="none" font-family="sans-serif" font-weight="normal" font-size="12" text-anchor="start"/><g fill="none" font-family="sans-serif" font-weight="normal" font-size="12" text-anchor="start"/></g></g><path d="M109.42004,284.68045c-9.25407,0 -18.39057,-3.60534 -25.22056,-10.42412c-9.5004,-9.506 -12.82022,-23.64742 -8.63265,-36.35008l-57.14234,-57.13114c-12.71385,4.18197 -26.83848,0.85655 -36.33888,-8.63825c-10.65926,-10.65366 -13.45843,-26.94485 -6.96435,-40.53204c0.27992,-0.58783 0.82856,-1.0077 1.47796,-1.11967c0.66061,-0.10077 1.30442,0.10077 1.76348,0.56543l22.40459,22.40459c3.58294,3.57175 9.40523,3.57734 12.98817,0c3.57734,-3.58294 3.57734,-9.40523 0,-12.98817l-22.40459,-22.40459c-0.46466,-0.46466 -0.6718,-1.11967 -0.56543,-1.76348c0.11197,-0.64381 0.52624,-1.19245 1.11967,-1.47796c13.58719,-6.49968 29.87279,-3.69491 40.52644,6.95875c9.506,9.506 12.83141,23.64742 8.63265,36.35567l57.13674,57.13114c12.71385,-4.20996 26.84968,-0.87334 36.35008,8.63265c10.64806,10.65366 13.44723,26.93925 6.95875,40.53204c-0.28552,0.58783 -0.83415,1.0077 -1.48356,1.11407c-0.60462,0.12316 -1.29322,-0.10077 -1.76348,-0.55983l-22.40459,-22.40459c-3.57734,-3.57734 -9.40523,-3.57734 -12.97697,0c-3.58294,3.58294 -3.58294,9.40523 0,12.97697l22.40459,22.40459c0.45906,0.46466 0.6718,1.11967 0.55983,1.76348c-0.11197,0.64381 -0.52624,1.19805 -1.11407,1.48356c-4.88176,2.33451 -10.11062,3.47098 -15.31148,3.47098zM18.95073,176.44198c0.52624,0 1.04129,0.20714 1.42198,0.58783l58.93941,58.91702c0.55983,0.55983 0.73898,1.38839 0.46466,2.12737c-4.28274,11.54379 -1.42758,24.62713 7.27785,33.32697c8.75582,8.75582 21.81117,11.5326 33.26539,7.30584l-20.28841,-20.28841c-5.14488,-5.15048 -5.14488,-13.53121 0,-18.68729c5.17287,-5.13928 13.548,-5.13369 18.68729,0l20.28841,20.28841c4.22675,-11.45982 1.45557,-24.50957 -7.30584,-33.26539c-8.69983,-8.70543 -21.77198,-11.56059 -33.32697,-7.27785c-0.73898,0.26872 -1.56194,0.09517 -2.12737,-0.46466l-58.92262,-58.92262c-0.55983,-0.55424 -0.73898,-1.38839 -0.46466,-2.12737c4.28833,-11.54379 1.42758,-24.62713 -7.27225,-33.33257c-8.75582,-8.75582 -21.81117,-11.5326 -33.27098,-7.30025l20.28841,20.28841c2.48567,2.48567 3.85166,5.80549 3.85166,9.34364c0,3.53816 -1.3716,6.85798 -3.85726,9.33805c-4.97133,4.97693 -13.71595,4.97133 -18.68169,0l-20.28841,-20.28282c-4.22675,11.45422 -1.45557,24.50957 7.30025,33.27098c8.69983,8.69983 21.78877,11.55499 33.32137,7.27785c0.22953,-0.08398 0.46466,-0.12316 0.69979,-0.12316zM-15.25518,283.33685c-0.51505,0 -1.03569,-0.20154 -1.42198,-0.58783l-9.75792,-9.75792c-0.76138,-0.76138 -0.78937,-1.98182 -0.06718,-2.78238l16.43675,-18.07707c0.36949,-0.40868 0.89014,-0.64381 1.44437,-0.66061c0.43107,0 1.08048,0.20154 1.47237,0.58783l4.27714,4.27714l41.85325,-41.85885l2.84956,2.85516l-41.85325,41.85885l4.27154,4.27154c0.39188,0.39188 0.60462,0.92373 0.58783,1.47796c-0.0168,0.55424 -0.25193,1.06928 -0.66061,1.44437l-18.07707,16.43675c-0.38069,0.3415 -0.86774,0.51505 -1.3548,0.51505zM-22.22512,271.49634l7.03712,7.04272l15.08755,-13.72155l-8.40872,-8.40872zM88.33106,189.72127l-2.85516,-2.84956l52.12622,-52.12622c2.14977,-2.14417 3.33102,-4.99373 3.33102,-8.02243c0,-3.02871 -1.18125,-5.87827 -3.33102,-8.02243c-4.4115,-4.4115 -11.61097,-4.4227 -16.03367,0l-52.12622,52.12622l-2.85516,-2.84956l52.12622,-52.12622c5.81109,-5.81109 15.9441,-5.79989 21.74398,0c2.90554,2.90554 4.50667,6.7628 4.50667,10.87199c0,4.10919 -1.60113,7.96645 -4.50667,10.87199zM78.88665,180.27685l-2.85516,-2.84956l51.96387,-51.96387l2.85516,2.84956z" fill="#000000" stroke="none" stroke-width="1" stroke-linecap="butt" stroke-linejoin="miter" stroke-miterlimit="10"/><path d="M12.28829,286.09009v-179.14715h179.14715v179.14715z" fill="none" stroke="none" stroke-width="1" stroke-linecap="butt" stroke-linejoin="miter" stroke-miterlimit="10"/></g></g></svg>