<svg version="1.1" xmlns="http://www.w3.org/2000/svg" xmlns:xlink="http://www.w3.org/1999/xlink" width="111.05205" height="108.07381" viewBox="0,0,111.05205,108.07381"><g transform="translate(-271.69094,-120.924)"><g data-paper-data="{&quot;isPaintingLayer&quot;:true}" fill-rule="nonzero" stroke-dasharray="" stroke-dashoffset="0" style="mix-blend-mode: normal"><g data-paper-data="{&quot;index&quot;:null}" stroke="none" stroke-width="1" stroke-linecap="butt" stroke-linejoin="miter" stroke-miterlimit="10"><g fill="#333e48"><path d="M310.44973,130.84097c10.24725,0 18.55472,8.3072 18.55472,18.55499v14.9181c0,10.2478 -8.30747,18.55499 -18.55472,18.55499h-6.94424c-10.2478,0 -18.55499,-8.30747 -18.55499,-18.55499v-14.9181c0,-10.2478 8.30747,-18.55499 18.55499,-18.55499z"/></g><path d="M291.8942,149.39569c0,-10.2478 8.30774,-18.55499 18.55554,-18.55499c10.24725,0 18.55472,8.3072 18.55472,18.55499v14.9181c0,10.24753 -8.30747,18.55499 -18.55472,18.55499c-10.2478,0 -18.55554,-8.3072 -18.55554,-18.55499z" fill="#3e4a57"/><path d="M297.98283,151.48911c0,-7.37151 5.97598,-13.34722 13.34803,-13.34722c7.37178,0 13.34749,5.97571 13.34749,13.34722v10.73125c0,7.37178 -5.97571,13.34776 -13.34749,13.34776c-7.37205,0 -13.34803,-5.97598 -13.34803,-13.34776z" fill="#333e48"/></g><path d="M293.6805,162.71641c0,-23.04443 18.74798,-41.79241 41.79274,-41.79241c23.0441,0 41.79176,18.74798 41.79176,41.79241c0,4.54187 -3.68141,8.22361 -8.22361,8.22361c-4.54155,0 -8.22361,-3.68141 -8.22361,-8.22361c0,-13.97535 -11.36951,-25.34486 -25.34454,-25.34486c-13.97535,0 -25.34519,11.36951 -25.34519,25.34486c0,4.54187 -3.68174,8.22361 -8.22361,8.22361c-4.5422,0 -8.22394,-3.68174 -8.22394,-8.22361z" data-paper-data="{&quot;index&quot;:null}" fill="#77b8e8" stroke="none" stroke-width="1" stroke-linecap="butt" stroke-linejoin="miter" stroke-miterlimit="10"/><path d="M302.55466,136.0381c5.95497,-4.10394 13.1654,-6.51028 20.92917,-6.51028c13.73193,0 25.73953,7.52521 32.11618,18.66768c-4.6708,-6.38951 -12.22009,-10.54889 -20.72328,-10.54889c-14.14767,0 -25.6577,11.5097 -25.6577,25.65737c0,4.59821 -3.72746,8.32501 -8.32501,8.32501c-4.59821,0 -8.32501,-3.72713 -8.32501,-8.32501c-0.00033,-10.37995 3.7598,-19.89675 9.98566,-27.26589z" data-paper-data="{&quot;index&quot;:null}" fill="#009bde" stroke="none" stroke-width="1" stroke-linecap="butt" stroke-linejoin="miter" stroke-miterlimit="10"/><path d="M366.72602,196.81424c-5.81509,36.96666 -35.39002,32.18455 -63.99112,28.87686c-28.6011,-3.30769 -33.96041,-12.52486 -28.18382,-38.57949c5.7766,-26.05463 24.29098,-44.77027 54.05748,-44.12384c29.7665,0.64643 43.93255,16.85981 38.11746,53.82647z" fill="#f7aa32" stroke="none" stroke-width="1.99937" stroke-linecap="round" stroke-linejoin="round" stroke-miterlimit="10"/><path d="M354.48223,218.06761c6.48456,6.18911 -22.8644,15.06167 -53.82646,8.77856c-30.96206,-6.28311 -29.80215,-20.37937 -28.41483,-27.49077c1.38731,-7.1114 24.72086,-14.38132 44.58587,-8.77856c19.86501,5.60276 26.35194,18.98626 37.65542,27.49077z" fill="#fbede4" stroke="none" stroke-width="1.99937" stroke-linecap="round" stroke-linejoin="round" stroke-miterlimit="10"/><path d="M300.17514,171.94946c-0.48959,4.05329 -3.24812,7.24467 -6.8164,7.0729c-3.56828,-0.17178 -7.18465,-3.75741 -6.10548,-7.69495c1.19785,-4.37054 4.76479,-6.64397 6.8164,-7.0729c5.10602,-1.0675 6.65126,3.17641 6.10548,7.69495z" fill="#2c2c2b" stroke="none" stroke-width="1.99937" stroke-linecap="round" stroke-linejoin="round" stroke-miterlimit="10"/><path d="M311.2718,189.4537c-0.59621,4.03898 -3.06807,6.6675 -7.15082,6.6675c-4.08275,0 -7.29836,-3.31081 -7.39247,-7.39248c-0.08815,-3.82298 3.52021,-6.76103 7.60296,-6.76103c4.08275,0 7.41067,4.29974 6.94033,7.48601z" fill="#2c2c2b" stroke="none" stroke-width="1.99937" stroke-linecap="round" stroke-linejoin="round" stroke-miterlimit="10"/><path d="M314.97869,200.04845c-5.94532,0.62097 -12.97873,3.27011 -11.78176,-6.69943c-2.57254,8.43708 -6.72314,6.27781 -10.39567,5.31334" fill="none" stroke="#2c2c2b" stroke-width="6" stroke-linecap="round" stroke-linejoin="round" stroke-miterlimit="4"/><path d="M327.81402,174.70997c-0.48959,4.05329 -3.24812,7.24467 -6.8164,7.0729c-3.56828,-0.17178 -7.18465,-3.75741 -6.10548,-7.69495c1.19785,-4.37054 4.76479,-6.64397 6.8164,-7.0729c5.10602,-1.0675 6.65126,3.17641 6.10548,7.69495z" fill="#2c2c2b" stroke="none" stroke-width="1.99937" stroke-linecap="round" stroke-linejoin="round" stroke-miterlimit="10"/><path d="M323.31716,143.40881l-29.0006,10.94725c0.9388,-7.36218 5.45558,-21.06769 12.86782,-23.04683c7.41223,-1.97914 12.66848,6.02507 16.13278,12.09959z" fill="#f7aa32" stroke="none" stroke-width="18" stroke-linecap="round" stroke-linejoin="round" stroke-miterlimit="4"/><path d="M345.97987,145.90555c5.35447,-3.08983 12.19783,-9.42572 18.43747,-4.41731c6.23964,5.00841 3.53307,16.83399 1.72851,25.35152z" fill="#f7aa32" stroke="none" stroke-width="18" stroke-linecap="round" stroke-linejoin="round" stroke-miterlimit="4"/><g data-paper-data="{&quot;index&quot;:null}" stroke="none" stroke-width="1" stroke-linecap="butt" stroke-linejoin="miter" stroke-miterlimit="10"><g fill="#333e48"><path d="M364.31679,139.14727c10.17628,0 18.42621,8.24966 18.42621,18.42648v14.81477c0,10.17682 -8.24993,18.42648 -18.42621,18.42648h-6.89642c-10.17655,0 -18.42648,-8.24993 -18.42648,-18.42648v-14.81477c0,-10.17682 8.2502,-18.42648 18.42648,-18.42648z"/></g><path d="M345.88977,157.57348c0,-10.17682 8.2502,-18.42648 18.42702,-18.42648c10.17628,0 18.42621,8.24966 18.42621,18.42648v14.81477c0,10.17655 -8.24993,18.42648 -18.42621,18.42648c-10.17655,0 -18.42702,-8.24966 -18.42702,-18.42648z" fill="#3e4a57"/><path d="M351.93624,159.6524c0,-7.32045 5.93486,-13.25477 13.25558,-13.25477c7.32099,0 13.25504,5.93432 13.25504,13.25477v10.65692c0,7.32072 -5.93405,13.25531 -13.25504,13.25531c-7.32072,0 -13.25558,-5.93459 -13.25558,-13.25531z" fill="#009bde"/><path d="M365.19182,172.99101c-4.42366,0 -8.00974,-3.58608 -8.00974,-8.00974c0,-4.42366 3.58608,-8.00974 8.00974,-8.00974c4.42366,0 8.00974,3.58608 8.00974,8.00974c0,4.42366 -3.58608,8.00974 -8.00974,8.00974z" fill="#ffffff"/></g></g></g></svg>