<svg version="1.1" xmlns="http://www.w3.org/2000/svg" xmlns:xlink="http://www.w3.org/1999/xlink" width="474" height="263" viewBox="0,0,474,263"><g transform="translate(-83,-48.5)"><g data-paper-data="{&quot;isPaintingLayer&quot;:true}" stroke-dasharray="" stroke-dashoffset="0" style="mix-blend-mode: normal"><path d="M83,311.5v-263h474v263z" fill="#005bc7" fill-rule="nonzero" stroke="#2c2c2b" stroke-width="0" stroke-linecap="butt" stroke-linejoin="miter" stroke-miterlimit="10"/><g fill-rule="nonzero"><g data-paper-data="{&quot;index&quot;:null}" stroke="none" stroke-width="1" stroke-linecap="butt" stroke-linejoin="miter" stroke-miterlimit="10"><g fill="#333e48"><path d="M404.71083,113.39898c16.98327,0 30.75165,13.76793 30.75165,30.7521v24.7245c0,16.98419 -13.76838,30.7521 -30.75165,30.7521h-11.50903c-16.98419,0 -30.7521,-13.76838 -30.7521,-30.7521v-24.7245c0,-16.98419 13.76838,-30.7521 30.7521,-30.7521z"/></g><path d="M373.95783,144.15063c0,-16.98419 13.76883,-30.7521 30.75301,-30.7521c16.98327,0 30.75165,13.76793 30.75165,30.7521v24.7245c0,16.98374 -13.76838,30.7521 -30.75165,30.7521c-16.98419,0 -30.75301,-13.76793 -30.75301,-30.7521z" fill="#3e4a57"/><path d="M384.04882,147.62016c0,-12.21717 9.90429,-22.12101 22.12235,-22.12101c12.21762,0 22.12145,9.90384 22.12145,22.12101v17.78543c0,12.21762 -9.90384,22.1219 -22.12145,22.1219c-12.21806,0 -22.12235,-9.90429 -22.12235,-22.1219z" fill="#333e48"/></g><path d="M376.91836,166.22772c0,-38.19267 31.07195,-69.26463 69.26517,-69.26463c38.19213,0 69.26355,31.07195 69.26355,69.26463c0,7.52747 -6.10138,13.6294 -13.6294,13.6294c-7.52694,0 -13.6294,-6.10138 -13.6294,-13.6294c0,-23.16204 -18.84325,-42.00529 -42.00476,-42.00529c-23.16204,0 -42.00584,18.84325 -42.00584,42.00529c0,7.52747 -6.10193,13.6294 -13.6294,13.6294c-7.52801,0 -13.62994,-6.10193 -13.62994,-13.6294z" data-paper-data="{&quot;index&quot;:null}" fill="#77b8e8" stroke="none" stroke-width="1" stroke-linecap="butt" stroke-linejoin="miter" stroke-miterlimit="10"/><path d="M391.62594,122.01244c9.86947,-6.80166 21.81967,-10.78981 34.68695,-10.78981c22.75861,0 42.65939,12.4719 53.22773,30.93887c-7.74115,-10.58965 -20.25296,-17.4832 -34.34572,-17.4832c-23.44763,0 -42.52377,19.07559 -42.52377,42.52323c0,7.62084 -6.1777,13.79745 -13.79745,13.79745c-7.62084,0 -13.79745,-6.17716 -13.79745,-13.79745c-0.00055,-17.2032 6.2313,-32.97587 16.54973,-45.18911z" data-paper-data="{&quot;index&quot;:null}" fill="#009bde" stroke="none" stroke-width="1" stroke-linecap="butt" stroke-linejoin="miter" stroke-miterlimit="10"/><path d="M497.9803,222.73974c-9.63764,61.26667 -58.65363,53.34104 -106.05564,47.85905c-47.40202,-5.482 -56.28426,-20.75807 -46.71044,-63.93969c9.57384,-43.18163 40.25864,-74.19998 89.59213,-73.12862c49.33349,1.07136 72.81158,27.9426 63.17395,89.20927z" fill="#f7aa32" stroke="none" stroke-width="1.99937" stroke-linecap="round" stroke-linejoin="round" stroke-miterlimit="10"/><path d="M477.68807,257.964c10.74718,10.25752 -37.8943,24.96245 -89.20925,14.54914c-51.31495,-10.41331 -49.39258,-33.77574 -47.0933,-45.56181c2.29926,-11.78607 40.9711,-23.83487 73.89436,-14.54914c32.92326,9.28573 43.67437,31.46687 62.40819,45.56181z" fill="#fbede4" stroke="none" stroke-width="1.99937" stroke-linecap="round" stroke-linejoin="round" stroke-miterlimit="10"/><path d="M387.68224,181.53011c-0.81142,6.71772 -5.38327,12.00695 -11.29716,11.72227c-5.91389,-0.2847 -11.90748,-6.22734 -10.11891,-12.75322c1.98526,-7.24351 7.89692,-11.01138 11.29716,-11.72227c8.46246,-1.76922 11.02346,5.26442 10.11891,12.75322z" fill="#2c2c2b" stroke="none" stroke-width="1.99937" stroke-linecap="round" stroke-linejoin="round" stroke-miterlimit="10"/><path d="M406.07329,210.54075c-0.98813,6.694 -5.08486,11.05038 -11.85141,11.05038c-6.76654,0 -12.09593,-5.48717 -12.25191,-12.25192c-0.1461,-6.33601 5.83422,-11.20539 12.60076,-11.20539c6.76654,0 12.28207,7.12617 11.50255,12.40693z" fill="#2c2c2b" stroke="none" stroke-width="1.99937" stroke-linecap="round" stroke-linejoin="round" stroke-miterlimit="10"/><path d="M412.2169,228.09996c-9.85347,1.02916 -21.51029,5.41971 -19.52649,-11.1033c-4.2636,13.98319 -11.14259,10.40452 -17.22926,8.80606" fill="none" stroke="#2c2c2b" stroke-width="6" stroke-linecap="round" stroke-linejoin="round" stroke-miterlimit="4"/><path d="M433.48952,186.10524c-0.81142,6.71772 -5.38327,12.00695 -11.29716,11.72227c-5.91389,-0.2847 -11.90748,-6.22734 -10.11891,-12.75322c1.98526,-7.24351 7.89692,-11.01138 11.29716,-11.72227c8.46246,-1.76922 11.02346,5.26442 10.11891,12.75322z" fill="#2c2c2b" stroke="none" stroke-width="1.99937" stroke-linecap="round" stroke-linejoin="round" stroke-miterlimit="10"/><path d="M426.03666,134.22828l-48.06413,18.14342c1.55592,-12.2017 9.0418,-34.91652 21.32647,-38.19665c12.28465,-3.28013 20.9961,9.98565 26.73765,20.05325z" fill="#f7aa32" stroke="none" stroke-width="18" stroke-linecap="round" stroke-linejoin="round" stroke-miterlimit="4"/><path d="M463.59669,138.36625c8.87423,-5.12093 20.21607,-15.62171 30.55733,-7.32103c10.34126,8.30069 5.85553,27.8998 2.86474,42.01633z" fill="#f7aa32" stroke="none" stroke-width="18" stroke-linecap="round" stroke-linejoin="round" stroke-miterlimit="4"/><g data-paper-data="{&quot;index&quot;:null}" stroke="none" stroke-width="1" stroke-linecap="butt" stroke-linejoin="miter" stroke-miterlimit="10"><g fill="#333e48"><path d="M493.98737,127.16542c16.86565,0 30.53867,13.67257 30.53867,30.53912v24.55325c0,16.86655 -13.67302,30.53912 -30.53867,30.53912h-11.42978c-16.8661,0 -30.53912,-13.67302 -30.53912,-30.53912v-24.55325c0,-16.86655 13.67346,-30.53912 30.53912,-30.53912z"/></g><path d="M463.44736,157.70409c0,-16.86655 13.67346,-30.53912 30.54001,-30.53912c16.86565,0 30.53867,13.67257 30.53867,30.53912v24.55325c0,16.8661 -13.67302,30.53912 -30.53867,30.53912c-16.8661,0 -30.54001,-13.67257 -30.54001,-30.53912z" fill="#3e4a57"/><path d="M473.46847,161.14959c0,-12.13254 9.83614,-21.96778 21.96913,-21.96778c12.13344,0 21.96823,9.83524 21.96823,21.96778v17.66224c0,12.13299 -9.83479,21.96868 -21.96823,21.96868c-12.13299,0 -21.96913,-9.83569 -21.96913,-21.96868z" fill="#009bde"/><path d="M495.4376,183.25632c-7.33155,0 -13.27494,-5.94339 -13.27494,-13.27494c0,-7.33155 5.94339,-13.27494 13.27494,-13.27494c7.33155,0 13.27494,5.94339 13.27494,13.27494c0,7.33155 -5.94339,13.27494 -13.27494,13.27494z" fill="#ffffff"/></g></g><path d="M251.08087,211.38547c-1.29176,0 -2.61973,-0.33985 -3.82699,-1.05596c-3.58553,-2.13621 -4.78071,-6.78488 -2.65595,-10.38973c4.04429,-6.89412 4.04429,-15.43894 0,-22.32092c-2.12476,-3.61698 -0.92958,-8.26566 2.65595,-10.40187c3.62175,-2.11193 8.23345,-0.92245 10.33406,2.67026c6.84511,11.65203 6.84511,26.11997 0,37.772c-1.40041,2.40323 -3.92356,3.72622 -6.50708,3.72622zM273.61946,223.5582c-1.29176,0 -2.63181,-0.33985 -3.82699,-1.05596c-3.58553,-2.13621 -4.78071,-6.78488 -2.65595,-10.38973c8.46283,-14.39512 8.46283,-32.28584 0,-46.66882c-2.12476,-3.60485 -0.92958,-8.26566 2.65595,-10.40187c3.59761,-2.09979 8.2093,-0.92245 10.33406,2.67026c11.27572,19.15303 11.27572,42.96687 0,62.1199c-1.41249,2.40323 -3.92356,3.72622 -6.50708,3.72622zM231.74904,151.65788v74.17247c0,8.78757 -10.35821,13.3877 -16.817,7.46458l-13.94374,-12.8051c-4.93766,-4.5273 -11.3723,-7.03977 -18.06047,-7.03977h-2.43865c-6.66403,0 -12.07251,-5.42548 -12.07251,-12.13753v-25.00332c0,-6.69992 5.40848,-12.13753 12.07251,-12.13753h2.30585c6.68817,0 13.12281,-2.51247 18.06047,-7.03977l14.07654,-12.92647c6.45879,-5.92312 16.817,-1.32299 16.817,7.45244z" data-paper-data="{&quot;index&quot;:null}" fill="#ffffff" fill-rule="evenodd" stroke="none" stroke-width="1" stroke-linecap="butt" stroke-linejoin="miter" stroke-miterlimit="10"/></g></g></svg>